# xmcd
#
# Track frame offsets: 
#        150
#        20306
#        36744
#        56422
#        70564
#        90988
#        115729
#        135997
#        155563
#        172120
#        192655
#        210460
#        229332
#
# Disc length: 3282 seconds
#
# Revision: 0
# Processed by: cddbd v1.5.2PL0 Copyright (c) Steve Scherf et al.
# Submitted via: ExactAudioCopyFreeDBPlugin 1.0
#
DISCID=ae0cd00d
DTITLE=萧亚轩 - 美丽的插曲
DYEAR=2004
DGENRE=Pop
TTITLE0=没有人
TTITLE1=Cappuccino
TTITLE2=最熟悉的陌生人
TTITLE3=一个人的精彩
TTITLE4=窗外的天气
TTITLE5=蔷薇
TTITLE6=明天
TTITLE7=长话短说
TTITLE8=我爱你那么多
TTITLE9=问自己
TTITLE10=我喜欢你快乐
TTITLE11=美丽的插曲
TTITLE12=未来的未来
EXTD=
EXTT0=
EXTT1=
EXTT2=
EXTT3=
EXTT4=
EXTT5=
EXTT6=
EXTT7=
EXTT8=
EXTT9=
EXTT10=
EXTT11=
EXTT12=
PLAYORDER=
